{
    "asset" : {
        "generator" : "Khronos glTF Blender I/O v1.3.48",
        "version" : "2.0"
    },
    "scene" : 0,
    "scenes" : [
        {
            "name" : "Scene",
            "nodes" : [
                0
            ]
        }
    ],
    "nodes" : [
        {
            "mesh" : 0,
            "name" : "\u7acb\u65b9\u4f53",
            "scale" : [
                0.3616604804992676,
                0.3616604804992676,
                0.3616604804992676
            ]
        }
    ],
    "animations" : [
        {
            "channels" : [
                {
                    "sampler" : 0,
                    "target" : {
                        "node" : 0,
                        "path" : "weights"
                    }
                }
            ],
            "name" : "KeyAction",
            "samplers" : [
                {
                    "input" : 32,
                    "interpolation" : "LINEAR",
                    "output" : 33
                }
            ]
        }
    ],
    "materials" : [
        {
            "doubleSided" : true,
            "emissiveFactor" : [
                0,
                0,
                0
            ],
            "name" : "\u30de\u30c6\u30ea\u30a2\u30eb",
            "pbrMetallicRoughness" : {
                "baseColorTexture" : {
                    "index" : 0,
                    "texCoord" : 0
                },
                "metallicFactor" : 0,
                "roughnessFactor" : 1
            }
        },
        {
            "doubleSided" : true,
            "emissiveFactor" : [
                0,
                0,
                0
            ],
            "name" : "\u30de\u30c6\u30ea\u30a2\u30eb.003",
            "pbrMetallicRoughness" : {
                "baseColorFactor" : [
                    0.800000011920929,
                    0.800000011920929,
                    0.800000011920929,
                    1
                ],
                "metallicFactor" : 0,
                "roughnessFactor" : 0.5
            }
        },
        {
            "doubleSided" : true,
            "emissiveFactor" : [
                0,
                0,
                0
            ],
            "name" : "\u30de\u30c6\u30ea\u30a2\u30eb.001",
            "pbrMetallicRoughness" : {
                "baseColorFactor" : [
                    1,
                    1,
                    1,
                    1
                ],
                "metallicFactor" : 0,
                "roughnessFactor" : 0.5
            }
        },
        {
            "doubleSided" : true,
            "emissiveFactor" : [
                0,
                0,
                0
            ],
            "name" : "\u30de\u30c6\u30ea\u30a2\u30eb.002",
            "pbrMetallicRoughness" : {
                "baseColorFactor" : [
                    0,
                    0,
                    0,
                    1
                ],
                "metallicFactor" : 0,
                "roughnessFactor" : 0.5
            }
        }
    ],
    "meshes" : [
        {
            "extras" : {
                "targetNames" : [
                    "\u30ad\u30fc 1",
                    "\u30a2\u30fc\u30de\u30c1\u30e5\u30a2"
                ]
            },
            "name" : "\u7acb\u65b9\u4f53",
            "primitives" : [
                {
                    "attributes" : {
                        "POSITION" : 0,
                        "NORMAL" : 1,
                        "TEXCOORD_0" : 2
                    },
                    "indices" : 3,
                    "material" : 0,
                    "targets" : [
                        {
                            "POSITION" : 4,
                            "NORMAL" : 5
                        },
                        {
                            "POSITION" : 6,
                            "NORMAL" : 7
                        }
                    ]
                },
                {
                    "attributes" : {
                        "POSITION" : 8,
                        "NORMAL" : 9,
                        "TEXCOORD_0" : 10
                    },
                    "indices" : 11,
                    "material" : 1,
                    "targets" : [
                        {
                            "POSITION" : 12,
                            "NORMAL" : 13
                        },
                        {
                            "POSITION" : 14,
                            "NORMAL" : 15
                        }
                    ]
                },
                {
                    "attributes" : {
                        "POSITION" : 16,
                        "NORMAL" : 17,
                        "TEXCOORD_0" : 18
                    },
                    "indices" : 19,
                    "material" : 2,
                    "targets" : [
                        {
                            "POSITION" : 20,
                            "NORMAL" : 21
                        },
                        {
                            "POSITION" : 22,
                            "NORMAL" : 23
                        }
                    ]
                },
                {
                    "attributes" : {
                        "POSITION" : 24,
                        "NORMAL" : 25,
                        "TEXCOORD_0" : 26
                    },
                    "indices" : 27,
                    "material" : 3,
                    "targets" : [
                        {
                            "POSITION" : 28,
                            "NORMAL" : 29
                        },
                        {
                            "POSITION" : 30,
                            "NORMAL" : 31
                        }
                    ]
                }
            ],
            "weights" : [
                0,
                0
            ]
        }
    ],
    "textures" : [
        {
            "source" : 0
        }
    ],
    "images" : [
        {
            "bufferView" : 4,
            "mimeType" : "image/png",
            "name" : "\u7121\u984c"
        }
    ],
    "accessors" : [
        {
            "bufferView" : 0,
            "componentType" : 5126,
            "count" : 702,
            "max" : [
                2.1693027019500732,
                2.750257730484009,
                6.896764755249023
            ],
            "min" : [
                -2.1693027019500732,
                -1.6265853643417358,
                -0.815263569355011
            ],
            "type" : "VEC3"
        },
        {
            "bufferView" : 1,
            "componentType" : 5126,
            "count" : 702,
            "type" : "VEC3"
        },
        {
            "bufferView" : 2,
            "componentType" : 5126,
            "count" : 702,
            "type" : "VEC2"
        },
        {
            "bufferView" : 3,
            "componentType" : 5123,
            "count" : 3804,
            "type" : "SCALAR"
        },
        {
            "bufferView" : 5,
            "componentType" : 5126,
            "count" : 702,
            "max" : [
                4.2212019275316066e-19,
                0.0019010305404663086,
                0
            ],
            "min" : [
                -1.4971922765095498e-16,
                -0.8535630106925964,
                -0.458895206451416
            ],
            "type" : "VEC3"
        },
        {
            "bufferView" : 6,
            "componentType" : 5126,
            "count" : 702,
            "type" : "VEC3"
        },
        {
            "bufferView" : 7,
            "componentType" : 5126,
            "count" : 702,
            "max" : [
                0.9858092069625854,
                0.6893764138221741,
                2.4926929473876953
            ],
            "min" : [
                -1.0080978870391846,
                -1.3386621475219727,
                -1.1920928955078125e-07
            ],
            "type" : "VEC3"
        },
        {
            "bufferView" : 8,
            "componentType" : 5126,
            "count" : 702,
            "type" : "VEC3"
        },
        {
            "bufferView" : 9,
            "componentType" : 5126,
            "count" : 896,
            "max" : [
                0.6951404213905334,
                -0.4020472466945648,
                6.144946575164795
            ],
            "min" : [
                -0.6951404213905334,
                -0.6884967684745789,
                5.278968811035156
            ],
            "type" : "VEC3"
        },
        {
            "bufferView" : 10,
            "componentType" : 5126,
            "count" : 896,
            "type" : "VEC3"
        },
        {
            "bufferView" : 11,
            "componentType" : 5126,
            "count" : 896,
            "type" : "VEC2"
        },
        {
            "bufferView" : 12,
            "componentType" : 5123,
            "count" : 1008,
            "type" : "SCALAR"
        },
        {
            "bufferView" : 13,
            "componentType" : 5126,
            "count" : 896,
            "max" : [
                0,
                0,
                0
            ],
            "min" : [
                0,
                -0.8539708256721497,
                -0.38649559020996094
            ],
            "type" : "VEC3"
        },
        {
            "bufferView" : 14,
            "componentType" : 5126,
            "count" : 896,
            "type" : "VEC3"
        },
        {
            "bufferView" : 15,
            "componentType" : 5126,
            "count" : 896,
            "max" : [
                0.5246805548667908,
                0.45021599531173706,
                2.4275054931640625
            ],
            "min" : [
                -0.2591031491756439,
                -0.753280520439148,
                2.1743946075439453
            ],
            "type" : "VEC3"
        },
        {
            "bufferView" : 16,
            "componentType" : 5126,
            "count" : 896,
            "type" : "VEC3"
        },
        {
            "bufferView" : 17,
            "componentType" : 5126,
            "count" : 922,
            "max" : [
                0.9696961045265198,
                0.37435248494148254,
                5.8064494132995605
            ],
            "min" : [
                -0.9696961045265198,
                0.02764069102704525,
                5.488953590393066
            ],
            "type" : "VEC3"
        },
        {
            "bufferView" : 18,
            "componentType" : 5126,
            "count" : 922,
            "type" : "VEC3"
        },
        {
            "bufferView" : 19,
            "componentType" : 5126,
            "count" : 922,
            "type" : "VEC2"
        },
        {
            "bufferView" : 20,
            "componentType" : 5123,
            "count" : 4800,
            "type" : "SCALAR"
        },
        {
            "bufferView" : 21,
            "componentType" : 5126,
            "count" : 922,
            "max" : [
                0,
                0,
                0
            ],
            "min" : [
                0,
                0,
                0
            ],
            "type" : "VEC3"
        },
        {
            "bufferView" : 22,
            "componentType" : 5126,
            "count" : 922,
            "type" : "VEC3"
        },
        {
            "bufferView" : 23,
            "componentType" : 5126,
            "count" : 922,
            "max" : [
                0.03691738843917847,
                0.35768479108810425,
                2.335541248321533
            ],
            "min" : [
                -1.0188500881195068,
                -1.2737960815429688,
                1.987386703491211
            ],
            "type" : "VEC3"
        },
        {
            "bufferView" : 24,
            "componentType" : 5126,
            "count" : 922,
            "type" : "VEC3"
        },
        {
            "bufferView" : 25,
            "componentType" : 5126,
            "count" : 262,
            "max" : [
                0.8926514983177185,
                0.29730796813964844,
                5.835665225982666
            ],
            "min" : [
                -0.8926514983177185,
                0.10468515753746033,
                5.8064494132995605
            ],
            "type" : "VEC3"
        },
        {
            "bufferView" : 26,
            "componentType" : 5126,
            "count" : 262,
            "type" : "VEC3"
        },
        {
            "bufferView" : 27,
            "componentType" : 5126,
            "count" : 262,
            "type" : "VEC2"
        },
        {
            "bufferView" : 28,
            "componentType" : 5123,
            "count" : 960,
            "type" : "SCALAR"
        },
        {
            "bufferView" : 29,
            "componentType" : 5126,
            "count" : 262,
            "max" : [
                0,
                0,
                0
            ],
            "min" : [
                0,
                0,
                0
            ],
            "type" : "VEC3"
        },
        {
            "bufferView" : 30,
            "componentType" : 5126,
            "count" : 262,
            "type" : "VEC3"
        },
        {
            "bufferView" : 31,
            "componentType" : 5126,
            "count" : 262,
            "max" : [
                -0.074917733669281,
                0.28208452463150024,
                2.3116040229797363
            ],
            "min" : [
                -0.9783257842063904,
                -1.2067532539367676,
                2.0022330284118652
            ],
            "type" : "VEC3"
        },
        {
            "bufferView" : 32,
            "componentType" : 5126,
            "count" : 262,
            "type" : "VEC3"
        },
        {
            "bufferView" : 33,
            "componentType" : 5126,
            "count" : 104,
            "max" : [
                4.333333333333333
            ],
            "min" : [
                0.041666666666666664
            ],
            "type" : "SCALAR"
        },
        {
            "bufferView" : 34,
            "componentType" : 5126,
            "count" : 208,
            "type" : "SCALAR"
        }
    ],
    "bufferViews" : [
        {
            "buffer" : 0,
            "byteLength" : 8424,
            "byteOffset" : 0
        },
        {
            "buffer" : 0,
            "byteLength" : 8424,
            "byteOffset" : 8424
        },
        {
            "buffer" : 0,
            "byteLength" : 5616,
            "byteOffset" : 16848
        },
        {
            "buffer" : 0,
            "byteLength" : 7608,
            "byteOffset" : 22464
        },
        {
            "buffer" : 0,
            "byteLength" : 191063,
            "byteOffset" : 30072
        },
        {
            "buffer" : 0,
            "byteLength" : 8424,
            "byteOffset" : 221136
        },
        {
            "buffer" : 0,
            "byteLength" : 8424,
            "byteOffset" : 229560
        },
        {
            "buffer" : 0,
            "byteLength" : 8424,
            "byteOffset" : 237984
        },
        {
            "buffer" : 0,
            "byteLength" : 8424,
            "byteOffset" : 246408
        },
        {
            "buffer" : 0,
            "byteLength" : 10752,
            "byteOffset" : 254832
        },
        {
            "buffer" : 0,
            "byteLength" : 10752,
            "byteOffset" : 265584
        },
        {
            "buffer" : 0,
            "byteLength" : 7168,
            "byteOffset" : 276336
        },
        {
            "buffer" : 0,
            "byteLength" : 2016,
            "byteOffset" : 283504
        },
        {
            "buffer" : 0,
            "byteLength" : 10752,
            "byteOffset" : 285520
        },
        {
            "buffer" : 0,
            "byteLength" : 10752,
            "byteOffset" : 296272
        },
        {
            "buffer" : 0,
            "byteLength" : 10752,
            "byteOffset" : 307024
        },
        {
            "buffer" : 0,
            "byteLength" : 10752,
            "byteOffset" : 317776
        },
        {
            "buffer" : 0,
            "byteLength" : 11064,
            "byteOffset" : 328528
        },
        {
            "buffer" : 0,
            "byteLength" : 11064,
            "byteOffset" : 339592
        },
        {
            "buffer" : 0,
            "byteLength" : 7376,
            "byteOffset" : 350656
        },
        {
            "buffer" : 0,
            "byteLength" : 9600,
            "byteOffset" : 358032
        },
        {
            "buffer" : 0,
            "byteLength" : 11064,
            "byteOffset" : 367632
        },
        {
            "buffer" : 0,
            "byteLength" : 11064,
            "byteOffset" : 378696
        },
        {
            "buffer" : 0,
            "byteLength" : 11064,
            "byteOffset" : 389760
        },
        {
            "buffer" : 0,
            "byteLength" : 11064,
            "byteOffset" : 400824
        },
        {
            "buffer" : 0,
            "byteLength" : 3144,
            "byteOffset" : 411888
        },
        {
            "buffer" : 0,
            "byteLength" : 3144,
            "byteOffset" : 415032
        },
        {
            "buffer" : 0,
            "byteLength" : 2096,
            "byteOffset" : 418176
        },
        {
            "buffer" : 0,
            "byteLength" : 1920,
            "byteOffset" : 420272
        },
        {
            "buffer" : 0,
            "byteLength" : 3144,
            "byteOffset" : 422192
        },
        {
            "buffer" : 0,
            "byteLength" : 3144,
            "byteOffset" : 425336
        },
        {
            "buffer" : 0,
            "byteLength" : 3144,
            "byteOffset" : 428480
        },
        {
            "buffer" : 0,
            "byteLength" : 3144,
            "byteOffset" : 431624
        },
        {
            "buffer" : 0,
            "byteLength" : 416,
            "byteOffset" : 434768
        },
        {
            "buffer" : 0,
            "byteLength" : 832,
            "byteOffset" : 435184
        }
    ],
    "buffers" : [
        {
            "byteLength" : 436016,
            "uri" : "data:application/octet-stream;base64,"
        }
    ]
}
